<svg width="100" height="101" viewBox="0 0 100 101" fill="none" xmlns="http://www.w3.org/2000/svg">
<g filter="url(#filter0_d_1_194)">
<rect x="4" width="92" height="93" rx="15" fill="#165DFF"/>
<path d="M22 33.1295H37.4286C39.1429 33.1295 40.5143 34.5308 40.5143 36.2824C40.5143 38.034 39.1429 39.4352 37.4286 39.4352H22C22.5714 47.3758 29.0857 53.5648 36.9714 53.5648H37.5429C39.2571 53.5648 40.6286 54.966 40.6286 56.7176C40.6286 58.4692 39.2571 59.8705 37.5429 59.8705H36.9714C29.0857 59.8705 22.5714 66.0594 22 74H63.0286C70.9143 74 77.4286 67.811 78 59.8705H62.5714C60.8571 59.8705 59.4857 58.4692 59.4857 56.7176C59.4857 54.966 60.8571 53.5648 62.5714 53.5648H78C77.4286 45.6242 70.9143 39.4352 63.0286 39.4352H62.4571C60.7429 39.4352 59.3714 38.034 59.3714 36.2824C59.3714 34.5308 60.7429 33.1295 62.4571 33.1295H63.0286C70.9143 33.1295 77.4286 26.9406 78 19H36.9714C29.0857 19 22.5714 25.189 22 33.1295Z" fill="#FCFCFC"/>
</g>
<defs>
<filter id="filter0_d_1_194" x="0" y="0" width="100" height="101" filterUnits="userSpaceOnUse" color-interpolation-filters="sRGB">
<feFlood flood-opacity="0" result="BackgroundImageFix"/>
<feColorMatrix in="SourceAlpha" type="matrix" values="0 0 0 0 0 0 0 0 0 0 0 0 0 0 0 0 0 0 127 0" result="hardAlpha"/>
<feOffset dy="4"/>
<feGaussianBlur stdDeviation="2"/>
<feComposite in2="hardAlpha" operator="out"/>
<feColorMatrix type="matrix" values="0 0 0 0 0 0 0 0 0 0 0 0 0 0 0 0 0 0 0.25 0"/>
<feBlend mode="normal" in2="BackgroundImageFix" result="effect1_dropShadow_1_194"/>
<feBlend mode="normal" in="SourceGraphic" in2="effect1_dropShadow_1_194" result="shape"/>
</filter>
</defs>
</svg>
